<?xml version="1.0" standalone="no"?>
<!DOCTYPE svg PUBLIC "-//W3C//DTD SVG 20010904//EN"
 "http://www.w3.org/TR/2001/REC-SVG-20010904/DTD/svg10.dtd">
<svg version="1.0" xmlns="http://www.w3.org/2000/svg"
 width="256.000000pt" height="256.000000pt" viewBox="0 0 256.000000 256.000000"
 preserveAspectRatio="xMidYMid meet">

<g transform="translate(0.000000,256.000000) scale(0.100000,-0.100000)"
fill="#000000" stroke="none">
<path d="M1140 2553 c-416 -44 -801 -308 -993 -680 -218 -423 -190 -916 76
-1313 64 -96 241 -273 337 -337 442 -296 998 -296 1440 0 96 64 273 241 337
337 229 343 284 771 148 1150 -161 445 -552 766 -1016 834 -97 15 -241 18
-329 9z m39 -1170 c57 -183 107 -333 110 -333 3 0 28 76 56 168 27 92 72 241
100 332 l51 165 153 3 153 3 -7 -23 c-8 -24 -131 -373 -214 -608 -34 -94 -54
-136 -66 -138 -9 -2 -38 5 -63 16 -26 11 -70 27 -99 35 l-52 16 40 -115 c21
-62 39 -116 39 -119 0 -3 -64 -4 -142 -3 l-141 3 -18 50 c-9 28 -83 236 -163
463 -80 227 -146 415 -146 418 0 2 68 3 152 2 l151 -3 106 -332z"/>
</g>
</svg>
